<svg viewBox="0 0 24 24" data-title="Highlight" fill="currentColor" stroke="none">
  <path fill-rule="evenodd" d="m12 6.1477-1.6165 3.002a3.0367 3.0367 0 0 1-1.234 1.2341l-3.002 1.6164 3.002 1.6165a3.0358 3.0358 0 0 1 1.234 1.2341L12 17.8528l1.6165-3.002a3.036 3.036 0 0 1 1.234-1.2341l3.002-1.6165-3.002-1.6164a3.037 3.037 0 0 1-1.234-1.2341L12 6.1477Zm.8913-2.615c-.3822-.71-1.4004-.71-1.7826 0L8.601 8.1897a1.0123 1.0123 0 0 1-.4114.4114L3.5324 11.109c-.7098.3822-.7098 1.4003 0 1.7825l4.6572 2.5078c.1744.0939.3174.2369.4114.4113l2.5077 4.6573c.3822.7098 1.4004.7098 1.7826 0l2.5077-4.6573c.094-.1744.237-.3174.4114-.4113l4.6572-2.5078c.7099-.3822.7099-1.4003 0-1.7825l-4.6572-2.5078a1.013 1.013 0 0 1-.4114-.4114l-2.5077-4.6572ZM4.2929 19.7073c-.3905-.3905-.3905-1.0236 0-1.4142L5 17.586c.3905-.3905 1.0237-.3905 1.4142 0 .3905.3906.3905 1.0237 0 1.4142l-.707.7071c-.3906.3906-1.0238.3906-1.4143 0Zm15.4142 0c-.3905.3906-1.0237.3906-1.4142 0l-.7071-.7071c-.3905-.3905-.3905-1.0236 0-1.4142.3905-.3905 1.0237-.3905 1.4142 0l.7071.7071c.3905.3906.3905 1.0237 0 1.4142Zm-13.3-13.2999c.3905-.3906.3905-1.0237 0-1.4143L5.7 4.2861c-.3905-.3906-1.0237-.3906-1.4142 0-.3905.3904-.3905 1.0236 0 1.4141l.707.7072c.3906.3905 1.0238.3905 1.4143 0Zm11.1858 0c-.3905-.3906-.3905-1.0237 0-1.4143l.7071-.707c.3905-.3906 1.0237-.3906 1.4142 0 .3905.3904.3905 1.0236 0 1.4141l-.7071.7072c-.3905.3905-1.0237.3905-1.4142 0Z" clip-rule="evenodd"/>
</svg>
