<svg viewBox="0 0 24 24" xmlns="http://www.w3.org/2000/svg" data-title="Speaker" fill="currentColor" stroke="none">
  <path d="m16,19.5H8c-.55,0-1-.45-1-1V5.5c0-.55.45-1,1-1h8.01c.55,0,1,.45,1,1v13.01c0,.55-.45,1-1,1ZM8,5.25c-.14,0-.25.11-.25.25v13.01c0,.13.11.25.25.25h8.01c.13,0,.25-.11.25-.25V5.5c0-.14-.11-.25-.25-.25H8Z"/>
  <path d="M12 10.5c-1.11 0-2-.9-2-2s.9-2 2-2 2 .9 2 2-.9 2-2 2Zm0-3.26c-.69 0-1.25.56-1.25 1.25s.56 1.25 1.25 1.25 1.25-.56 1.25-1.25-.56-1.25-1.25-1.25ZM12 15.49c-.55 0-1-.45-1-1s.45-1 1-1 1 .45 1 1-.45 1-1 1Zm0-1.24c-.14 0-.25.11-.25.25 0 .27.49.27.49 0 0-.13-.11-.25-.25-.25Z"/>
  <path d="m12,17.49c-1.65,0-3-1.34-3-3s1.34-3,3-3,3,1.34,3,3-1.34,3-3,3Zm0-5.24c-1.24,0-2.25,1.01-2.25,2.25s1.01,2.25,2.25,2.25,2.25-1.01,2.25-2.25-1.01-2.25-2.25-2.25Z"/>
</svg>
