<svg viewBox="0 0 24 24" xmlns="http://www.w3.org/2000/svg">
    <path fill-rule="evenodd" clip-rule="evenodd" d="M5.43006 5.28446C4.84046 5.28446 4.27829 5.51652 3.86281 5.92465C3.85741 5.92996 3.85207 5.93532 3.8468 5.94074L3.3573 6.44376C2.60967 7.18808 2.14173 8.16461 2.02739 9.20898C1.91272 10.2564 2.16014 11.3131 2.73083 12.2019C2.735 12.2084 2.73924 12.2148 2.74356 12.2212C5.14535 15.7778 8.20218 18.8417 11.7504 21.2473L11.7679 21.259C12.6583 21.8361 13.7219 22.089 14.7793 21.9721C15.8334 21.8556 16.8121 21.3794 17.5532 20.6279L18.0538 20.1361C18.0592 20.1308 18.0645 20.1254 18.0698 20.12C18.4751 19.7035 18.6987 19.1481 18.6987 18.5737C18.6987 17.9992 18.4751 17.4439 18.0698 17.0273L18.0581 17.0155L15.9076 14.8774L15.9051 14.8749C15.4914 14.4664 14.9303 14.2339 14.3416 14.2339C13.7534 14.2339 13.1927 14.4661 12.7791 14.874C12.7403 14.9116 12.6927 14.9292 12.6471 14.9292C12.6022 14.9292 12.5552 14.9121 12.5167 14.8754L9.14463 11.4873L9.13938 11.4821C9.12163 11.4645 9.10646 11.4424 9.09574 11.4167C9.085 11.3909 9.07922 11.3626 9.07922 11.3335C9.07922 11.3044 9.085 11.276 9.09574 11.2502C9.10646 11.2245 9.12163 11.2024 9.13938 11.1849L9.15076 11.1734C9.55648 10.7586 9.78046 10.2043 9.78046 9.63088C9.78046 9.05744 9.55651 8.50313 9.15078 8.08832L7.00543 5.93263L6.9973 5.92465C6.58182 5.51652 6.01965 5.28446 5.43006 5.28446ZM4.81779 7.8343L5.30202 7.33671C5.34005 7.30164 5.38605 7.28522 5.43006 7.28522C5.475 7.28522 5.52204 7.30235 5.56052 7.33898L7.6897 9.47832C7.7258 9.51618 7.74921 9.57052 7.74921 9.63088C7.74921 9.69079 7.72615 9.74476 7.69051 9.78259C7.48707 9.98631 7.32634 10.2271 7.21649 10.4908C7.10508 10.7583 7.04796 11.0447 7.04796 11.3335C7.04796 11.6223 7.10508 11.9086 7.21649 12.1761C7.32738 12.4423 7.49012 12.6852 7.69631 12.8901L11.0718 16.2818L11.0799 16.2898C11.4954 16.6979 12.0575 16.93 12.6471 16.93C13.2367 16.93 13.7989 16.6979 14.2144 16.2898L14.2163 16.2879C14.2531 16.2515 14.2985 16.2347 14.3416 16.2347C14.3845 16.2347 14.4296 16.2513 14.4663 16.2873L16.6067 18.4153C16.6437 18.4552 16.6674 18.5114 16.6674 18.5737C16.6674 18.6352 16.6442 18.6909 16.6079 18.7307L16.1127 19.2173L16.0999 19.23C15.6827 19.6549 15.1359 19.9194 14.5528 19.9838C13.9731 20.0479 13.3875 19.911 12.8928 19.5929C9.56668 17.3361 6.69819 14.4619 4.44178 11.1234C4.12193 10.6207 3.98156 10.0207 4.04694 9.42349C4.1127 8.82282 4.38202 8.26659 4.8051 7.84712L4.81779 7.8343Z"/>
    <path fill-rule="evenodd" clip-rule="evenodd" d="M14.3942 2.4153C14.8636 2.44 15.2208 2.83608 15.1921 3.29995L14.9503 7.20689C14.9503 7.20689 20.2389 2.50767 20.5974 2.20424C20.9559 1.90081 21.4932 1.93998 21.7976 2.29172C22.102 2.64347 22.0581 3.17459 21.6996 3.47802L16.0525 8.48067L19.9928 8.84795C20.4606 8.89156 20.8011 9.30183 20.7533 9.76431C20.7054 10.2268 20.2874 10.5664 19.8196 10.5228L13.8918 9.97021C13.4374 9.92786 13.1006 9.53863 13.1285 9.08808L13.4923 3.2105C13.521 2.74662 13.9248 2.39059 14.3942 2.4153Z"/>
</svg>
