<svg viewBox="0 0 24 24" xmlns="http://www.w3.org/2000/svg">
    <path fill-rule="evenodd" clip-rule="evenodd" d="M5.43006 5.28446C4.84046 5.28446 4.27829 5.51652 3.86281 5.92465C3.85741 5.92996 3.85207 5.93532 3.8468 5.94074L3.3573 6.44376C2.60967 7.18808 2.14173 8.16461 2.02739 9.20898C1.91272 10.2564 2.16014 11.3131 2.73083 12.2019C2.735 12.2084 2.73924 12.2148 2.74356 12.2212C5.14535 15.7778 8.20218 18.8417 11.7504 21.2473L11.7679 21.259C12.6583 21.8361 13.7219 22.089 14.7793 21.9721C15.8334 21.8556 16.8121 21.3794 17.5532 20.6279L18.0538 20.1361C18.0592 20.1308 18.0645 20.1254 18.0698 20.12C18.4751 19.7035 18.6987 19.1481 18.6987 18.5737C18.6987 17.9992 18.4751 17.4439 18.0698 17.0273L18.0581 17.0155L15.9076 14.8774L15.9051 14.8749C15.4914 14.4664 14.9303 14.2339 14.3416 14.2339C13.7534 14.2339 13.1927 14.4661 12.7791 14.874C12.7403 14.9116 12.6927 14.9292 12.6471 14.9292C12.6022 14.9292 12.5552 14.9121 12.5167 14.8754L9.14463 11.4873L9.13938 11.4821C9.12163 11.4645 9.10646 11.4424 9.09574 11.4167C9.085 11.3909 9.07922 11.3626 9.07922 11.3335C9.07922 11.3044 9.085 11.276 9.09574 11.2502C9.10646 11.2245 9.12163 11.2024 9.13938 11.1849L9.15076 11.1734C9.55648 10.7586 9.78046 10.2043 9.78046 9.63088C9.78046 9.05744 9.55651 8.50313 9.15078 8.08832L7.00543 5.93263L6.9973 5.92465C6.58182 5.51652 6.01965 5.28446 5.43006 5.28446Z"/>
    <path fill-rule="evenodd" clip-rule="evenodd" d="M14.3942 2.4153C14.8636 2.44 15.2208 2.83608 15.1921 3.29995L14.9503 7.20689C14.9503 7.20689 20.2389 2.50767 20.5974 2.20424C20.9559 1.90081 21.4932 1.93998 21.7976 2.29172C22.102 2.64347 22.0581 3.17459 21.6996 3.47802L16.0525 8.48067L19.9928 8.84795C20.4606 8.89156 20.8011 9.30183 20.7533 9.76431C20.7054 10.2268 20.2874 10.5664 19.8196 10.5228L13.8918 9.97021C13.4374 9.92786 13.1006 9.53863 13.1285 9.08808L13.4923 3.2105C13.521 2.74662 13.9248 2.39059 14.3942 2.4153Z"/>
</svg>
