<svg viewBox="0 0 24 24" xmlns="http://www.w3.org/2000/svg">
    <path d="M12.81 21.072a.81.81 0 1 1-1.62 0 .81.81 0 0 1 1.62 0Z"/>
    <path fill-rule="evenodd" d="M8.313.966a3.6 3.6 0 0 0-3.6 3.6v16.582a3.6 3.6 0 0 0 3.6 3.6h7.373a3.6 3.6 0 0 0 3.6-3.6V4.566a3.6 3.6 0 0 0-3.6-3.6H8.314Zm-1.2 3.6a1.2 1.2 0 0 1 1.2-1.2h1.21v.01a1.2 1.2 0 0 0 1.2 1.2h2.554a1.2 1.2 0 0 0 1.2-1.2v-.01h1.21a1.2 1.2 0 0 1 1.2 1.2v12.886H7.113V4.566Zm0 15.286v1.296a1.2 1.2 0 0 0 1.2 1.2h7.373a1.2 1.2 0 0 0 1.2-1.2v-1.296H7.114Z" clip-rule="evenodd"/>
</svg>