<svg viewBox="0 0 24 24" xmlns="http://www.w3.org/2000/svg">
    <path d="M9.84714 4.14215C11.6333 4.6485 13.1483 5.83403 14.0659 7.44338C14.9836 9.05274 15.2304 10.9571 14.7531 12.7464C14.2759 14.5357 13.1129 16.0666 11.5146 17.0095C9.91623 17.9524 8.01049 18.2318 6.20782 17.7874C6.09722 17.7599 5.98058 17.7696 5.87612 17.8151C5.77165 17.8607 5.68526 17.9394 5.63043 18.0391C5.5756 18.1387 5.55544 18.2537 5.57309 18.366C5.59074 18.4782 5.64521 18.5815 5.72798 18.6597C6.87543 19.7071 8.27429 20.4422 9.78967 20.7939C11.3051 21.1456 12.8859 21.1022 14.3797 20.6678C15.8735 20.2334 17.2299 19.4226 18.3182 18.3137C19.4064 17.2048 20.1898 15.8352 20.5928 14.3368C20.9958 12.8385 21.0048 11.2619 20.6189 9.75924C20.2331 8.25655 19.4654 6.87839 18.3899 5.75762C17.3143 4.63685 15.9673 3.81129 14.4785 3.36052C12.9898 2.90975 11.4096 2.84898 9.89025 3.18407C9.78182 3.20593 9.68383 3.26331 9.61188 3.34709C9.53992 3.43086 9.49815 3.53622 9.49319 3.64639C9.48823 3.75656 9.52038 3.86521 9.58452 3.95505C9.64866 4.04489 9.7411 4.11075 9.84714 4.14215Z"/>
    <path fill-rule="evenodd" clip-rule="evenodd" d="M6.55154 9.49624C6.44264 9.20192 6.16194 9.00652 5.84814 9.00652C5.53434 9.00652 5.25364 9.20192 5.14474 9.49624L4.72425 10.6326L3.58784 11.0531C3.29354 11.162 3.09814 11.4427 3.09814 11.7565C3.09814 12.0703 3.29354 12.351 3.58784 12.4599L4.72425 12.8804L5.14474 14.0168C5.25364 14.3111 5.53434 14.5065 5.84814 14.5065C6.16194 14.5065 6.44264 14.3111 6.55154 14.0168L6.97204 12.8804L8.10844 12.4599C8.40274 12.351 8.59814 12.0703 8.59814 11.7565C8.59814 11.4427 8.40274 11.162 8.10844 11.0531L6.97204 10.6326L6.55154 9.49624ZM5.82825 11.7565C5.83505 11.75 5.84164 11.7434 5.84814 11.7366C5.85464 11.7434 5.86124 11.75 5.86804 11.7565C5.86124 11.763 5.85464 11.7697 5.84814 11.7764C5.84164 11.7697 5.83505 11.763 5.82825 11.7565Z"/>
</svg>
