<svg viewBox="0 0 24 24" xmlns="http://www.w3.org/2000/svg">
  <path d="m9.8,6.5h11.12c.6,0,1.08-.48,1.08-1.08s-.48-1.08-1.08-1.08h-11.12c-.6,0-1.08.48-1.08,1.08s.48,1.08,1.08,1.08Z"/>
  <path d="m3.92,16.65c-1.06,0-1.92.86-1.92,1.92s.86,1.92,1.92,1.92,1.92-.86,1.92-1.92-.86-1.92-1.92-1.92Zm0,1.88s.04.02.04.04-.02.04-.04.04-.04-.02-.04-.04.02-.04.04-.04Z"/>
  <path d="m20.92,10.91h-11.12c-.6,0-1.08.48-1.08,1.08s.48,1.08,1.08,1.08h11.12c.6,0,1.08-.48,1.08-1.08s-.48-1.08-1.08-1.08Z"/>
  <path d="m20.92,17.5h-11.12c-.6,0-1.08.48-1.08,1.08s.48,1.08,1.08,1.08h11.12c.6,0,1.08-.48,1.08-1.08s-.48-1.08-1.08-1.08Z"/>
  <path d="m3.92,3.5c-1.06,0-1.92.86-1.92,1.92s.86,1.92,1.92,1.92,1.92-.86,1.92-1.92-.86-1.92-1.92-1.92Zm0,1.88s.04.02.04.04-.02.04-.04.04-.04-.02-.04-.04.02-.04.04-.04Z"/>
  <path d="m3.92,10.07c-1.06,0-1.92.86-1.92,1.92s.86,1.92,1.92,1.92,1.92-.86,1.92-1.92-.86-1.92-1.92-1.92Zm0,1.88s.04.02.04.04-.02.04-.04.04-.04-.02-.04-.04.02-.04.04-.04Z"/>
</svg>