<svg viewBox="0 0 24 24" xmlns="http://www.w3.org/2000/svg">
  <path clip-rule="evenodd" fill-rule="evenodd" d="M17.1,8.4h-6.5v3.9h5.7V9.9c0-0.2,0.2-0.3,0.3-0.3c0.2,0,0.3,0.2,0.3,0.3v2.8c0,0.2-0.2,0.3-0.3,0.3h-6.4&#xA;&#x9;&#x9;c-0.2,0-0.3-0.2-0.3-0.3V8.4H9.8c-0.2,0-0.3-0.2-0.3-0.3V6.7c0-0.2,0.2-0.3,0.3-0.3h1.3c-0.2-0.1-0.4-0.3-0.4-0.5&#xA;&#x9;&#x9;c-0.1-0.2-0.1-0.3,0-0.5c0-0.2,0.2-0.3,0.3-0.5c0.3-0.3,0.6-0.4,1-0.3c0.3,0.1,0.6,0.3,0.8,0.5c0.3,0.3,0.5,0.6,0.7,1&#xA;&#x9;&#x9;c0.2-0.3,0.4-0.7,0.7-1c0.2-0.2,0.5-0.4,0.8-0.5c0.4-0.1,0.7,0.1,1,0.3c0.1,0.1,0.3,0.3,0.3,0.5c0.1,0.2,0,0.4,0,0.5&#xA;&#x9;&#x9;c-0.1,0.2-0.3,0.4-0.4,0.5h1.2c0.2,0,0.3,0.2,0.3,0.3v1.4C17.5,8.3,17.3,8.4,17.1,8.4z M10.2,7.1h6.6v0.7h-6.6V7.1z M15.2,5.9&#xA;&#x9;&#x9;c-0.3,0.2-0.7,0.3-1.2,0.4c0.2-0.3,0.4-0.6,0.6-0.8c0.2-0.2,0.3-0.3,0.5-0.3c0.1,0,0.2,0,0.4,0.2c0.1,0.1,0.1,0.1,0.1,0.2&#xA;&#x9;&#x9;c0,0,0,0,0,0.1C15.6,5.7,15.5,5.8,15.2,5.9z M12.3,5.5c0.2,0.2,0.4,0.5,0.6,0.8c-0.4-0.1-0.8-0.2-1.2-0.4c-0.3-0.1-0.4-0.2-0.4-0.3&#xA;&#x9;&#x9;c0,0,0,0,0-0.1c0,0,0-0.1,0.1-0.2c0.2-0.2,0.3-0.2,0.4-0.2C11.9,5.2,12.1,5.3,12.3,5.5z"/>
  <path clip-rule="evenodd" fill-rule="evenodd" d="M11.9,14.7c-0.2-0.1-0.4-0.3-0.6-0.4c-1-0.7-1.9-1.3-3.5-1c-0.8,0.1-1.7,0.3-2.5,0.6c-0.1,0-0.2,0.2-0.2,0.3&#xA;&#x9;&#x9;v3.2c0,0.2,0.1,0.3,0.3,0.3c0,0,3.4,0.1,4.9,1.4c0.3,0.2,0.6,0.3,1,0.3h3.3c0.6,0,1.1-0.3,1.5-0.7l2.6-3.6c0.2-0.3,0.2-0.7,0-1&#xA;&#x9;&#x9;c-0.3-0.4-0.7-0.6-1.1-0.5c-0.1,0-0.2,0.1-0.2,0.1c-0.6,0.8-1.4,1.6-1.8,1.6l0,0h-0.1l0,0h-0.3C14.5,15.4,12.9,15.3,11.9,14.7z&#xA;&#x9;&#x9; M5.9,14.4C6.6,14.2,7.3,14,8,13.9c1.3-0.2,2.1,0.3,3,0.9c0.2,0.1,0.4,0.3,0.6,0.4c1.2,0.8,3.2,0.8,4,0.8c0.1,0.1,0.5,0.3,0.3,0.5&#xA;&#x9;&#x9;c-0.2,0.2-1.3,0.3-2.4,0.3h-1.4l-2-1.1c-0.1-0.1-0.2-0.1-0.4,0c-0.2,0.1-0.2,0.2-0.2,0.3c0,0.1,0.1,0.3,0.2,0.3l2.1,1.3&#xA;&#x9;&#x9;c0.1,0,0.1,0.1,0.2,0h1.8c1,0,2.5-0.1,2.8-0.8c0.1-0.4,0-0.7-0.2-1c0.6-0.4,1.2-1.1,1.5-1.4c0.1,0,0.3,0.1,0.4,0.2c0,0,0,0,0,0.1&#xA;&#x9;&#x9;v0.1l-2.6,3.6c-0.2,0.3-0.6,0.5-1,0.5h-3.3c-0.2,0-0.4-0.1-0.5-0.2c-1.4-1.2-4.1-1.5-5-1.5C5.9,17.2,5.9,14.4,5.9,14.4z"/>
</svg>