<svg viewBox="0 0 24 24" xmlns="http://www.w3.org/2000/svg">
<path d="M20.64 10.3058C20.32 9.88107 19.84 9.37136 19.28 8.86165C19.04 8.6068 18.56 8.6068 18.32 8.86165L10.24 17.017C9.92 17.2718 9.92 17.7816 10.24 18.1214C10.4 18.2913 10.64 18.3762 10.88 18.3762C10.96 18.3762 10.96 18.3762 11.04 18.3762H11.6C13.68 18.3762 15.6 17.5267 17.12 16.4223C18.64 15.4029 19.92 14.1286 20.64 13.2791C20.96 12.8544 21.2 12.3447 21.2 11.835C21.2 11.2403 21.04 10.6456 20.64 10.3058Z" fill="#353741"/>
<path d="M19.6 3.25485C19.28 2.91505 18.88 2.91505 18.56 3.25485L15.76 6.31311C14.48 5.6335 13.04 5.20874 11.6 5.20874C9.52 5.20874 7.6 6.05825 6.08 7.16262C4.56 8.18204 3.28 9.45631 2.56 10.3058C2.24 10.7306 2 11.2403 2 11.75C2 12.2597 2.16 12.8544 2.56 13.1942C3.6 14.4684 4.88 15.4879 6.16 16.4223L3.6 19.1408C3.28 19.4806 3.28 19.9053 3.6 20.2451C3.92 20.585 4.32 20.585 4.64 20.2451L19.6 4.27427C19.92 4.01942 19.92 3.50971 19.6 3.25485ZM9.2 13.1942C8.96 12.7694 8.8 12.2597 8.8 11.75C8.8 10.9854 9.12 10.2209 9.6 9.71117C10.08 9.20146 10.8 8.86165 11.52 8.86165C12 8.86165 12.48 9.03155 12.88 9.28641L9.2 13.1942Z" fill="#353741"/>
</svg>