<svg viewBox="0 0 24 24" xmlns="http://www.w3.org/2000/svg">
	<path d="M21.04,10.56c-0.32-0.42-0.8-0.93-1.36-1.44c-0.24-0.25-0.72-0.25-0.96,0l-8.08,8.16c-0.32,0.25-0.32,0.76,0,1.1
		c0.16,0.17,0.4,0.25,0.64,0.25c0.08,0,0.08,0,0.16,0H12c2.08,0,4-0.85,5.52-1.95c1.52-1.02,2.8-2.29,3.52-3.14
		c0.32-0.42,0.56-0.93,0.56-1.44C21.6,11.49,21.44,10.9,21.04,10.56z"/>
	<path d="M20,3.5c-0.32-0.34-0.72-0.34-1.04,0l-2.8,3.06c-1.28-0.68-2.72-1.1-4.16-1.1c-2.08,0-4,0.85-5.52,1.95
		c-1.52,1.02-2.8,2.29-3.52,3.14C2.64,10.98,2.4,11.49,2.4,12s0.16,1.1,0.56,1.44c1.04,1.27,2.32,2.29,3.6,3.23L4,19.39
		c-0.32,0.34-0.32,0.76,0,1.1c0.32,0.34,0.72,0.34,1.04,0L20,4.52C20.32,4.27,20.32,3.76,20,3.5z M9.6,13.44
		C9.36,13.02,9.2,12.51,9.2,12c0-0.76,0.32-1.53,0.8-2.04c0.48-0.51,1.2-0.85,1.92-0.85c0.48,0,0.96,0.17,1.36,0.42L9.6,13.44z"/>
</svg>