<svg viewBox="0 0 24 24" xmlns="http://www.w3.org/2000/svg">
  <path fill-rule="evenodd" clip-rule="evenodd" d="M10.5356 2.00049C10.7802 2.00049 11.0248 2.08138 11.2694 2.16226C16.8957 4.75069 20.1572 10.1702 19.9942 14.7808C19.9126 16.7221 19.2603 18.5826 17.8741 19.8768C16.488 21.171 14.531 21.9799 12.0848 21.9799C11.1063 22.0608 10.1279 21.899 9.14939 21.5754C8.17092 21.2519 7.27398 20.6857 6.54013 20.0386C5.80627 19.3915 5.15395 18.5826 4.74626 17.6928C4.25702 16.7221 4.0124 15.7515 4.0124 14.7808C3.93086 13.6484 4.25702 12.516 4.8278 11.4644C5.39857 10.4129 6.21397 9.60398 7.27398 9.03776C7.5186 8.87599 7.76322 8.87599 8.08938 8.95687C8.41554 9.03776 8.57862 9.28043 8.66016 9.4422C8.98631 10.0893 9.31247 10.7364 9.80171 11.2217C10.2909 10.4129 10.5356 9.4422 10.5356 8.30977C10.5356 6.85378 10.1279 5.31691 9.31247 3.94181C9.14939 3.69914 9.06785 3.37559 9.14939 3.05203C9.23093 2.72848 9.39401 2.48582 9.63863 2.32404L9.72017 2.24315C9.96479 2.08138 10.2909 2.00049 10.5356 2.00049ZM15.4279 17.3692C14.6941 18.0972 13.7156 18.5017 12.7371 18.5017C12.1664 18.5017 11.7587 18.0972 11.7587 17.531C11.7587 16.9648 12.1664 16.5603 12.7371 16.5603C13.2264 16.5603 13.7156 16.3177 14.0418 15.9941C14.4495 15.6706 14.6126 15.1852 14.6126 14.6999C14.6126 14.1337 15.0203 13.7292 15.591 13.7292C16.1618 13.7292 16.5695 14.1337 16.5695 14.6999C16.5695 15.7515 16.1618 16.6412 15.4279 17.3692Z"/>
</svg>
