<svg xmlns="http://www.w3.org/2000/svg" viewBox="0 0 24 24">
  <path d="M12 18c.5523 0 1 .4477 1 1v2c0 .5523-.4477 1-1 1s-1-.4477-1-1v-2c0-.5523.4477-1 1-1Zm0-16c.5523 0 1 .4477 1 1v2c0 .5523-.4477 1-1 1s-1-.4477-1-1V3c0-.5523.4477-1 1-1ZM6 12c0 .5523-.4477 1-1 1H3c-.5523 0-1-.4477-1-1s.4477-1 1-1h2c.5523 0 1 .4477 1 1Zm16 0c0 .5523-.4477 1-1 1h-2c-.5523 0-1-.4477-1-1s.4477-1 1-1h2c.5523 0 1 .4477 1 1ZM7.0509 16.9491c.3905.3906.3905 1.0237 0 1.4142L5.9142 19.5c-.3905.3905-1.0237.3905-1.4142 0-.3905-.3905-.3905-1.0237 0-1.4142l1.1367-1.1367c.3905-.3905 1.0236-.3905 1.4142 0Zm.004-9.8942c-.3905.3905-1.0237.3905-1.4142 0L4.5 5.9142c-.3905-.3905-.3905-1.0237 0-1.4142.3905-.3905 1.0237-.3905 1.4142 0L7.055 5.6407c.3905.3905.3905 1.0237 0 1.4142ZM19.5 4.5c.3905.3905.3905 1.0237 0 1.4142l-1.136 1.136c-.3906.3906-1.0237.3906-1.4143 0-.3905-.3905-.3905-1.0236 0-1.4142L18.0858 4.5c.3905-.3905 1.0237-.3905 1.4142 0Zm0 15c-.3905.3905-1.0237.3905-1.4142 0l-1.1361-1.136c-.3905-.3906-.3905-1.0237 0-1.4143.3906-.3905 1.0237-.3905 1.4143 0l1.136 1.1361c.3905.3905.3905 1.0237 0 1.4142Z"/>
  <path fill-rule="evenodd" d="M7 10c0-1.6569 1.3431-3 3-3h4c1.6569 0 3 1.3431 3 3v4c0 1.6569-1.3431 3-3 3h-4c-1.6569 0-3-1.3431-3-3v-4Zm3-1c-.5523 0-1 .4477-1 1v4c0 .5523.4477 1 1 1h4c.5523 0 1-.4477 1-1v-4c0-.5523-.4477-1-1-1h-4Z" clip-rule="evenodd"/>
</svg>
