<svg width="24" height="24" viewBox="0 0 24 24" fill="none" xmlns="http://www.w3.org/2000/svg">
<path fill-rule="evenodd" clip-rule="evenodd" d="M11.3262 2.29496C11.6993 1.90168 12.3007 1.90168 12.6738 2.29496C14.6016 4.32923 19.9997 10.4286 20 14.9395C19.8883 16.914 18.9842 18.765 17.4854 20.0879L17.1943 20.3282C15.6912 21.4829 13.4999 22 12 22C10.4 22 8.01366 21.4109 6.51465 20.0879C5.01584 18.765 4.1117 16.914 4 14.9395C4.00026 10.4286 9.3984 4.32923 11.3262 2.29496ZM12 4.54008C11.0383 5.60775 9.7385 7.14896 8.58398 8.84965C7.03136 11.1368 6.02542 13.3109 6.00195 14.8838C6.09689 16.2718 6.73894 17.5889 7.82324 18.5459C8.84981 19.4519 10.7137 19.96 12 19.96C13.2862 19.96 15.1501 19.4519 16.1768 18.5459C17.261 17.589 17.9021 16.2719 17.9971 14.8838C17.9736 13.3109 16.9686 11.1368 15.416 8.84965C14.2615 7.14896 12.9617 5.60775 12 4.54008Z" fill="#3A4757"/>
<path d="M9.48448 9.45979C9.72765 9.02654 10.2766 8.87211 10.7101 9.11507C11.1434 9.35811 11.2975 9.90719 11.0548 10.3407C10.6191 11.1183 10.8007 12.0022 11.1417 13.3407C11.4422 14.5199 11.9018 16.1545 11.0548 17.6658C10.8118 18.0991 10.2636 18.2533 9.83019 18.0106C9.39677 17.7676 9.24184 17.2195 9.48448 16.786C9.92022 16.0083 9.73863 15.1236 9.39757 13.785C9.09709 12.6057 8.63735 10.9711 9.48448 9.45979Z" fill="#3A4757"/>
<path d="M12.9855 10.2147C13.2168 9.77507 13.7615 9.60578 14.2013 9.83675C14.6411 10.0679 14.8101 10.6126 14.5792 11.0526C14.3354 11.5166 14.2935 11.8647 14.3185 12.16C14.3464 12.4896 14.4584 12.8038 14.6251 13.2479C14.7791 13.658 14.9878 14.1993 15.0401 14.8153C15.0953 15.4659 14.9765 16.1567 14.5792 16.9129C14.348 17.3525 13.8042 17.5217 13.3644 17.2908C12.9245 17.0596 12.7543 16.515 12.9855 16.075C13.2293 15.6108 13.2722 15.2629 13.2472 14.9676C13.2192 14.638 13.1062 14.3238 12.9396 13.8797C12.7856 13.4695 12.5768 12.9282 12.5245 12.3123C12.4695 11.6617 12.5881 10.9709 12.9855 10.2147Z" fill="#3A4757"/>
</svg>