<svg viewBox="0 0 24 24" xmlns="http://www.w3.org/2000/svg">
    <path d="M7.535 4.1062C8.29077 3.09507 9.47688 2.5 10.7365 2.5H13.2733C14.5329 2.5 15.719 3.09507 16.4748 4.1062L17.351 5.27851H18.003C20.2131 5.27851 22.0049 7.07629 22.0049 9.29401V10.7892C22.0049 11.3437 21.557 11.7931 21.0044 11.7931C20.4519 11.7931 20.0039 11.3437 20.0039 10.7892V9.29401C20.0039 8.18518 19.1081 7.28626 18.003 7.28626H16.8508C16.5359 7.28626 16.2394 7.13749 16.0504 6.88471L14.874 5.31084C14.4961 4.80528 13.9031 4.50775 13.2733 4.50775H10.7365C10.1067 4.50775 9.51363 4.80528 9.13575 5.31084L7.95935 6.88471C7.77041 7.13749 7.47389 7.28626 7.15898 7.28626H6.00679C4.90169 7.28626 4.00582 8.18518 4.00582 9.29401V10.7892C4.00582 11.3437 3.55789 11.7931 3.00535 11.7931C2.45281 11.7931 2.00488 11.3437 2.00488 10.7892V9.29401C2.00488 7.07629 3.79664 5.27851 6.00679 5.27851H6.65875L7.535 4.1062ZM3.00535 14.2865C3.55789 14.2865 4.00582 14.736 4.00582 15.2904V16.4845C4.00582 17.5934 4.90167 18.4923 6.00675 18.4923H8.90454C9.45708 18.4923 9.90501 18.9417 9.90501 19.4961C9.90501 20.0506 9.45708 20.5 8.90454 20.5H6.00675C3.79658 20.5 2.00488 18.7022 2.00488 16.4845V15.2904C2.00488 14.736 2.45281 14.2865 3.00535 14.2865ZM22.0049 15.2904C22.0049 14.736 21.557 14.2865 21.0044 14.2865C20.4519 14.2865 20.0039 14.736 20.0039 15.2904V16.4845C20.0039 17.5934 19.1081 18.4923 18.003 18.4923H15.267C14.7145 18.4923 14.2665 18.9417 14.2665 19.4961C14.2665 20.0506 14.7145 20.5 15.267 20.5H18.003C20.2132 20.5 22.0049 18.7022 22.0049 16.4845V15.2904ZM7.88928 12.5078C7.88928 10.2271 9.73194 8.37815 12.005 8.37815C14.278 8.37815 16.1207 10.2271 16.1207 12.5078C16.1207 14.7886 14.278 16.6375 12.005 16.6375C9.73194 16.6375 7.88928 14.7886 7.88928 12.5078ZM12.005 10.3859C10.837 10.3859 9.89022 11.3359 9.89022 12.5078C9.89022 13.6798 10.837 14.6298 12.005 14.6298C13.1729 14.6298 14.1197 13.6798 14.1197 12.5078C14.1197 11.3359 13.1729 10.3859 12.005 10.3859Z" fill="black"/>
</svg>
