<svg xmlns="http://www.w3.org/2000/svg" viewBox="0 0 24 25">
  <path fill-rule="evenodd" d="M10.7365 3A3.9973 3.9973 0 0 0 7.535 4.6062l-.8762 1.1723h-.652c-2.2102 0-4.002 1.7978-4.002 4.0155v1.4952c0 .5545.448 1.0039 1.0006 1.0039.5525 0 1.0004-.4494 1.0004-1.0039V9.794c0-1.1088.8959-2.0077 2.001-2.0077H7.159a.9993.9993 0 0 0 .8003-.4016l1.1764-1.5739a1.9987 1.9987 0 0 1 1.6008-.803h2.5368c.6298 0 1.2228.2975 1.6007.803l1.1764 1.574a.9995.9995 0 0 0 .8004.4015h1.1522c1.1051 0 2.0009.8989 2.0009 2.0077v1.4952c0 .5545.448 1.0039 1.0005 1.0039.5526 0 1.0005-.4494 1.0005-1.0039V9.794c0-2.2177-1.7918-4.0155-4.0019-4.0155h-.652l-.8762-1.1723A3.9974 3.9974 0 0 0 13.2733 3h-2.5368ZM4.0058 15.7904c0-.5544-.448-1.0039-1.0004-1.0039-.5526 0-1.0005.4495-1.0005 1.0039v1.1941C2.0049 19.2022 3.7966 21 6.0068 21h2.8977c.5526 0 1.0005-.4494 1.0005-1.0039 0-.5544-.448-1.0038-1.0005-1.0038H6.0067c-1.105 0-2.0009-.8989-2.0009-2.0078v-1.1941Zm17.9991 0c0-.5544-.4479-1.0039-1.0005-1.0039-.5525 0-1.0005.4495-1.0005 1.0039v1.1941c0 1.1089-.8958 2.0078-2.0009 2.0078h-2.736c-.5525 0-1.0005.4494-1.0005 1.0038 0 .5545.448 1.0039 1.0005 1.0039h2.736c2.2102 0 4.0019-1.7978 4.0019-4.0155v-1.1941ZM9.8902 13.0078c0-1.1719.9468-2.1219 2.1148-2.1219 1.1679 0 2.1147.95 2.1147 2.1219 0 1.172-.9468 2.122-2.1147 2.122-1.168 0-2.1148-.95-2.1148-2.122Zm2.1148-4.1296c-2.273 0-4.1157 1.8489-4.1157 4.1296 0 2.2808 1.8426 4.1297 4.1157 4.1297 2.273 0 4.1157-1.8489 4.1157-4.1297 0-2.2807-1.8427-4.1296-4.1157-4.1296Z" clip-rule="evenodd"/>
</svg>
