<svg viewBox="0 0 24 24" xmlns="http://www.w3.org/2000/svg">
	<path fill-rule="evenodd" clip-rule="evenodd" d="M20.5,6.06c0-0.26-0.08-0.43-0.17-0.68c-0.08-0.09-0.17-0.26-0.25-0.34L18.8,6.92V17.4l-5.86-2.05
		l-1.02,1.45l0.85,0.26c-0.17,0.34-0.34,0.68-0.68,0.94c-0.43,0.34-0.85,0.51-1.36,0.51l-1.11,1.62c0.26,0.09,0.43,0.09,0.68,0.09
		c1.02,0.09,2.04-0.26,2.89-0.94c0.51-0.43,0.94-1.02,1.19-1.62l4.25,1.45c0.26,0.09,0.43,0.09,0.68,0.09c0.26,0,0.43-0.09,0.6-0.26
		c0.17-0.17,0.34-0.34,0.42-0.51c0.09-0.17,0.17-0.43,0.17-0.68V6.06z"/>
	<path fill-rule="evenodd" clip-rule="evenodd" d="M11.06,16.55l1.02-1.45l5.87-8.35L19.4,4.7l0.85-1.28c0.17-0.26,0.17-0.6,0.08-0.85
		c-0.08-0.17-0.17-0.34-0.34-0.43c-0.42-0.26-1.02-0.17-1.27,0.26l-2.12,3.07L4.86,9.39c-0.43,0.17-0.77,0.43-1.02,0.77
		C3.67,10.5,3.5,10.84,3.5,11.26v1.28c0,0.43,0.17,0.77,0.43,1.11c0.25,0.34,0.59,0.6,0.93,0.68l1.61,0.51v1.28
		c0,0.85,0.34,1.7,0.85,2.39l-1.36,1.87c-0.26,0.43-0.17,1.02,0.25,1.28C6.39,22,6.56,22,6.73,22h0.09c0.26,0,0.51-0.17,0.68-0.43
		l1.28-1.79l1.02-1.45L11.06,16.55z M5.45,12.8c-0.09,0-0.09-0.09-0.17-0.09C5.2,12.63,5.2,12.63,5.2,12.54v-1.28
		c0-0.09,0-0.17,0.09-0.17c0-0.09,0.09-0.09,0.17-0.09l9.44-3.24l-4.68,6.73L5.45,12.8z M8.18,16.21v-0.68l1.1,0.34l-0.85,1.28
		C8.18,16.89,8.18,16.55,8.18,16.21z"/>
</svg>
