<svg viewBox="0 0 24 24" xmlns="http://www.w3.org/2000/svg">
<path fill-rule="evenodd" clip-rule="evenodd" d="M20.16,5.38c-0.08-0.17-0.25-0.34-0.42-0.51c-0.08-0.09-0.17-0.09-0.25-0.17l-8.16,11.93l1.43,0.51
		c-0.17,0.34-0.42,0.68-0.67,0.94c-0.34,0.26-0.76,0.51-1.26,0.51c-0.25,0-0.51,0-0.76,0l-1.01,1.45c0.59,0.26,1.35,0.34,2.02,0.26
		c0.76-0.09,1.51-0.43,2.1-0.94c0.51-0.43,0.93-1.02,1.18-1.7l4.29,1.45c0.25,0.09,0.42,0.09,0.67,0.09s0.42-0.09,0.59-0.26
		c0.17-0.09,0.34-0.26,0.42-0.51c0.08-0.17,0.17-0.43,0.17-0.6V5.98C20.33,5.81,20.25,5.55,20.16,5.38z"/>
	<path fill-rule="evenodd" clip-rule="evenodd" d="M10.4,16.38L18.4,4.7l0.93-1.28c0.17-0.26,0.17-0.6,0.08-0.85c-0.08-0.17-0.17-0.34-0.34-0.43
		c-0.42-0.26-1.01-0.17-1.26,0.26l-2.36,3.41L4.85,9.47c-0.42,0.17-0.76,0.34-0.93,0.68C3.67,10.5,3.5,10.92,3.5,11.26v1.36
		c0,0.43,0.17,0.77,0.42,1.11c0.25,0.34,0.59,0.6,0.93,0.68l1.6,0.51v1.28c0,0.68,0.17,1.36,0.5,1.96l-1.68,2.39
		c-0.25,0.43-0.17,1.02,0.25,1.28C5.69,22,5.86,22,6.02,22h0.08c0.25,0,0.5-0.17,0.67-0.43l1.43-2.05l0.93-1.36L10.4,16.38z
		 M8.04,16.21v-0.68l0.59,0.17l-0.5,0.77C8.04,16.38,8.04,16.29,8.04,16.21z"/>
</svg>
