<svg xmlns="http://www.w3.org/2000/svg" viewBox="0 0 24 24">
  <path fill-rule="evenodd" d="M20.7176 7.4877C20.7176 5.407 19.6458 4 18.0667 4c-1.579 0-2.6509 1.407-2.6509 3.4877 0 2.0907 1.0623 3.4976 2.6509 3.4976s2.6509-1.407 2.6509-3.4976Zm-3.5313 0c0-1.1593.3349-1.8627.8804-1.8627s.8804.7034.8804 1.8627c0 1.1692-.3253 1.8727-.8804 1.8727-.5551 0-.8804-.7035-.8804-1.8727ZM3.3077 12.6135c.3322-.2654.3881-.7518.1249-1.0866a.7632.7632 0 0 0-1.0781-.1259C1.5799 12.0196 1 12.832 1 13.812c0 .7673.359 1.4372.8825 1.9827.52.542 1.2378 1.002 2.0706 1.3827 1.5076.6892 3.5089 1.1711 5.7446 1.3688v.6803c0 .3035.176.579.4503.7044a.763.763 0 0 0 .8225-.1222l1.5349-1.3537a.7763.7763 0 0 0 .262-.5821.7761.7761 0 0 0-.262-.5821l-1.5349-1.3536a.7625.7625 0 0 0-.8225-.1222.7736.7736 0 0 0-.4503.7042v.4737c-2.0532-.1935-3.8272-.6377-5.1106-1.2244-.7263-.3319-1.2598-.6934-1.6013-1.0493-.338-.3522-.451-.6566-.451-.9072 0-.3166.1859-.7298.7729-1.1985Zm18.3378-1.2125a.7632.7632 0 0 0-1.0781.1259c-.2632.3348-.2073.8212.125 1.0866.5869.4687.7727.8819.7727 1.1985 0 .471-.4353 1.1472-1.7585 1.8155-1.2587.6357-3.0794 1.1286-5.2258 1.3479-.4217.0431-.7289.4225-.6862.8475.0428.4251.4192.7347.8409.6917 2.2669-.2317 4.2834-.759 5.7587-1.504C21.8047 16.2981 23 15.2333 23 13.812c0-.98-.5799-1.7924-1.3545-2.411Zm-9.4633-.4157c-1.4355 0-2.4882-1.0403-2.4882-2.4572 0-.7729.2488-1.5655 1.1005-2.7942l1.1389-1.6348h1.8087l-1.5599 2.269c1.4546 0 2.536.971 2.536 2.259 0 1.3575-1.0718 2.3582-2.536 2.3582Zm0-1.4763c.4976 0 .8613-.3765.8613-.8818 0-.5153-.3637-.8819-.8613-.8819-.4976 0-.8613.3666-.8613.8819 0 .5152.3637.8818.8613.8818Zm-8.024.4954c.6316.6242 1.5025.9809 2.402.9809 1.4164 0 2.4404-.8719 2.4404-2.0708 0-.6837-.3828-1.2088-1.0623-1.5259.4881-.3369.7752-.8025.7752-1.3574C8.7135 4.862 7.7565 4 6.4455 4c-.8327 0-1.6461.436-2.1916 1.179l.9666 1.0008c.3732-.426.7751-.654 1.1292-.654.4115 0 .689.2379.689.6045 0 .3666-.2775.6044-.7177.6044h-.5263v1.4862h.5742c.6029 0 .957.218.957.5945 0 .3468-.3254.5945-.7656.5945-.4785 0-.9666-.208-1.5408-.6738l-.8613 1.2683Z" clip-rule="evenodd"/>
</svg>
