<svg xmlns="http://www.w3.org/2000/svg" viewBox="0 0 24 24">
  <path d="M14.0295 6.5529c.3965 0 .7271.327.6249.7104a2.7556 2.7556 0 0 1-.7132 1.2377 2.7515 2.7515 0 0 1-3.893 0 2.756 2.756 0 0 1-.7131-1.2376c-.1023-.3835.2283-.7105.6248-.7105h4.0696Z"/>
  <path fill-rule="evenodd" d="M4.9982 3.002c0-.5534.4483-1.002 1.0012-1.002h11.9897c.5529 0 1.0012.4486 1.0012 1.002 0 .5535-.4483 1.0022-1.0012 1.0022l.0078 2.3426a6.6583 6.6583 0 0 1-1.9477 4.7061 6.6515 6.6515 0 0 1-1.193.9473c.4292.2668.851.5839 1.2141.9472 1.247 1.2482 1.9265 2.941 1.9265 4.7062v2.3416c.553 0 1.0012.4487 1.0012 1.0021s-.4482 1.0021-1.0012 1.0021h-.3181A1.0582 1.0582 0 0 1 17.643 22H6.346c-.012 0-.024-.0002-.0358-.0006h-.311c-.5529 0-1.0011-.4487-1.0011-1.0021s.4482-1.0021 1.0012-1.0021v-2.3416c0-1.7652.7007-3.458 1.9477-4.7062a6.6498 6.6498 0 0 1 1.193-.9472 6.6505 6.6505 0 0 1-1.193-.9473 6.6583 6.6583 0 0 1-1.9476-4.7061V4.0042c-.553 0-1.0012-.4487-1.0012-1.0021Zm10.9962 16.9932H8.0018v-2.3416a4.6534 4.6534 0 0 1 1.3612-3.289c.8715-.8723 1.3989-1.3624 2.6314-1.3624 1.2326 0 1.7673.4901 2.6389 1.3624a4.6535 4.6535 0 0 1 1.3611 3.289v2.3416ZM14.6333 9.6358c-.8715.8723-1.4063 1.3623-2.6388 1.3623-1.2326 0-1.76-.49-2.6315-1.3623a4.6533 4.6533 0 0 1-1.3612-3.289V4.0045h7.9927v2.3423a4.6535 4.6535 0 0 1-1.3612 3.289Z" clip-rule="evenodd"/>
</svg>
