<svg viewBox="0 0 24 24" xmlns="http://www.w3.org/2000/svg">
	<path fill-rule="evenodd" d="M12.37,16.56c-0.37,0-0.67,0.2-0.67,0.44c0,0.24,0.3,0.44,0.67,0.44s0.67-0.2,0.67-0.44
		C13.04,16.76,12.74,16.56,12.37,16.56z M12.37,18c-0.83,0-1.5-0.45-1.5-1c0-0.55,0.67-1,1.5-1s1.5,0.45,1.5,1
		C13.87,17.55,13.2,18,12.37,18z"/>
	<path fill-rule="evenodd" d="M15.03,14c-0.08,0-0.17-0.03-0.24-0.11c-0.66-0.71-1.52-1.1-2.43-1.1c-0.9,0-1.75,0.38-2.41,1.08
		c-0.14,0.15-0.36,0.14-0.49-0.02c-0.13-0.16-0.12-0.41,0.02-0.56C10.27,12.46,11.3,12,12.37,12c1.08,0,2.11,0.47,2.9,1.31
		c0.14,0.15,0.15,0.4,0.02,0.56C15.21,13.96,15.12,14,15.03,14z"/>
	<path fill-rule="evenodd" d="M17.51,12c-0.09,0-0.19-0.04-0.26-0.11c-1.29-1.38-3.03-2.13-4.88-2.13c-1.85,0-3.58,0.75-4.87,2.12
		c-0.14,0.15-0.37,0.15-0.51,0.01c-0.14-0.15-0.15-0.38-0.01-0.53C8.41,9.83,10.32,9,12.37,9c2.05,0,3.97,0.84,5.41,2.36
		c0.14,0.15,0.14,0.39-0.01,0.53C17.69,11.96,17.6,12,17.51,12z"/>
		<path fill-rule="evenodd" d="M19.52,10c-0.11,0-0.22-0.05-0.29-0.13c-1.64-2.03-4.14-3.2-6.86-3.2c-2.72,0-5.21,1.16-6.85,3.18
			C5.4,10,5.17,10.03,5.02,9.92C4.86,9.8,4.83,9.6,4.95,9.45C6.72,7.26,9.43,6,12.37,6c2.95,0,5.66,1.26,7.43,3.47
			c0.12,0.15,0.09,0.36-0.07,0.47C19.67,9.98,19.59,10,19.52,10z"/>
</svg>