<svg xmlns="http://www.w3.org/2000/svg" width="252" height="67" viewBox="0 0 252 67" fill="none">
<path d="M16.2988 33.6636L16.2988 10.0502C16.2988 4.01086 22.512 -0.121365 28.2295 2.11536L62.223 15.4139L51.7091 19.592L26.4584 10.2558C25.0349 9.72951 23.5143 10.7617 23.5143 12.2542L23.5143 30.7962L16.2988 33.6636Z" fill="#F51592"/>
<path d="M65.8813 21.9007C65.8813 23.641 64.8051 25.2073 63.1608 25.86L50.5482 30.8669V30.886L13.8402 46.3815L11.905 47.1139L40.3886 57.6454C41.8121 58.1717 43.3327 57.1396 43.3327 55.647V37.1573L50.5482 34.29V57.8631C50.5482 63.8992 44.3412 68.0313 38.6247 65.8008L3.71129 52.1778C2.05432 51.5312 0.966798 49.9586 0.966798 48.209L0.966797 46.0004C0.966797 44.2601 2.043 42.6938 3.68726 42.041L65.279 17.5718C65.6652 18.215 65.8813 18.9597 65.8813 19.7396V21.9007Z" fill="url(#paint0_radial_1047_2276)"/>
<path d="M228.694 17.136V34.8305L244.58 25.4647C244.766 25.3553 245.006 25.3971 245.127 25.5751C245.509 26.1349 245.77 26.7833 245.874 27.4822L246.216 29.7766C246.491 31.6243 245.618 33.4543 244.009 34.4026L229.543 43.0303C229.016 43.3441 228.694 43.9117 228.694 44.5244V55.0408C228.694 55.9563 227.952 56.6985 227.036 56.6985H221.843C220.927 56.6985 220.185 55.9563 220.185 55.0408V17.136C220.185 16.2205 220.927 15.4783 221.843 15.4783H227.036C227.952 15.4783 228.694 16.2205 228.694 17.136Z" fill="#140e79"/>
<path d="M83.3769 46.3992C83.2288 45.474 83.9913 44.6928 84.9283 44.6928H90.102C90.9182 44.6928 91.5872 45.3024 91.9087 46.0528C93.0648 48.7515 96.2796 50.3168 100.407 50.3168C105.099 50.3168 108.304 48.0439 108.304 44.9551C108.304 42.1868 106.323 40.6132 101.049 39.535L96.6192 38.6608C88.2269 36.9998 84.1181 32.9785 84.1181 26.7134C84.1181 19.0204 90.8204 13.9209 100.174 13.9209C109.262 13.9209 115.23 18.3126 116.185 25.0871C116.315 26.0058 115.556 26.7717 114.629 26.7717H109.541C108.678 26.7717 107.987 26.0941 107.704 25.2785C106.771 22.5972 103.949 21.0311 100.174 21.0311C95.8324 21.0311 92.9184 23.0709 92.9184 26.1597C92.9184 28.7532 94.9582 30.3559 99.9121 31.3467L104.37 32.25C113.258 34.0275 117.134 37.6118 117.134 43.9935C117.134 52.211 110.694 57.427 100.174 57.427C90.8913 57.427 84.4822 53.3037 83.3769 46.3992Z" fill="#140e79"/>
<path fill-rule="evenodd" clip-rule="evenodd" d="M132.779 30.8474C134.48 27.2123 137.934 24.965 142.425 24.965C150.351 24.965 155.218 30.997 155.218 41.0794C155.218 51.1328 150.38 57.1939 142.571 57.1939C138.051 57.1939 134.569 55.005 132.896 51.5148C132.878 51.4774 132.841 51.4533 132.799 51.4533C132.74 51.4533 132.692 51.5012 132.692 51.5603V63.5821C132.692 64.4976 131.95 65.2398 131.035 65.2398H125.841C124.926 65.2398 124.183 64.4976 124.183 63.5821V27.1181C124.183 26.2026 124.926 25.4604 125.841 25.4604H130.918C131.834 25.4604 132.576 26.2026 132.576 27.1181V30.803C132.576 30.8618 132.623 30.9096 132.682 30.9096C132.724 30.9096 132.762 30.8851 132.779 30.8474ZM132.663 41.0794C132.663 46.7326 135.402 50.346 139.569 50.346C143.824 50.346 146.505 46.7618 146.505 41.0794C146.505 35.4263 143.824 31.7838 139.569 31.7838C135.402 31.7838 132.663 35.4846 132.663 41.0794Z" fill="#140e79"/>
<path fill-rule="evenodd" clip-rule="evenodd" d="M171.271 57.1939C175.153 57.1939 179.006 55.2643 180.769 51.9778C180.788 51.9421 180.826 51.9196 180.866 51.9196C180.926 51.9196 180.975 51.9684 180.975 52.0286V55.0408C180.975 55.9563 181.717 56.6985 182.633 56.6985H187.535C188.45 56.6985 189.193 55.9563 189.193 55.0408V35.2223C189.193 28.928 183.977 24.7901 175.963 24.7901C168.501 24.7901 163.574 28.1781 162.442 33.2876C162.237 34.2151 163.007 35.0183 163.957 35.0183H168.599C169.403 35.0183 170.059 34.4182 170.435 33.7078C171.266 32.1398 173.056 31.1427 175.584 31.1427C178.79 31.1427 180.829 32.8328 180.829 35.7468V36.2533C180.829 37.1308 180.146 37.8563 179.27 37.9082L172.962 38.282C165.181 38.7482 160.81 42.0411 160.81 47.7234C160.81 53.3474 165.327 57.1939 171.271 57.1939ZM174.069 51.0453C171.184 51.0453 169.261 49.5883 169.261 47.2571C169.261 45.0425 171.067 43.6146 174.244 43.3815L179.949 43.0281C180.426 42.9985 180.829 43.3774 180.829 43.8554V45.2465C180.829 48.6267 177.77 51.0453 174.069 51.0453Z" fill="#140e79"/>
<path d="M198.745 56.6985C197.829 56.6985 197.087 55.9563 197.087 55.0408V27.1181C197.087 26.2026 197.829 25.4604 198.745 25.4604H203.647C204.563 25.4604 205.305 26.2026 205.305 27.1181V30.985C205.305 31.0399 205.349 31.0844 205.404 31.0844C205.449 31.0844 205.488 31.0541 205.5 31.0112C206.62 27.0948 209.261 24.965 212.91 24.965C213.346 24.965 213.753 24.9931 214.122 25.0395C214.848 25.1307 215.329 25.7869 215.329 26.5189V30.2879C215.329 31.4708 214.08 32.3684 212.899 32.2986C212.683 32.2859 212.462 32.2791 212.24 32.2791C208.044 32.2791 205.596 34.8435 205.596 39.2436V55.0408C205.596 55.9563 204.854 56.6985 203.938 56.6985H198.745Z" fill="#140e79"/>
<path d="M232.796 46.6738C232.505 46.2602 232.627 45.6864 233.061 45.4266L239.178 41.7652L247.817 54.0892C248.587 55.1878 247.801 56.6985 246.459 56.6985H240.715C240.176 56.6985 239.67 56.4361 239.359 55.9951L232.796 46.6738Z" fill="#140e79"/>
<defs>
<radialGradient id="paint0_radial_1047_2276" cx="0" cy="0" r="1" gradientUnits="userSpaceOnUse" gradientTransform="translate(89.6711 104.127) rotate(-134.657) scale(112.284 96.9635)">
<stop offset="0.580974" stop-color="#7E49DD"/>
<stop offset="1" stop-color="#4183D7"/>
</radialGradient>
</defs>
</svg>